<svg width="301" height="300" viewBox="0 0 57 56" fill="none" xmlns="http://www.w3.org/2000/svg">
<g id="laugh">
<path id="Vector" d="M28.5596 50.5974C41.2983 50.5974 51.6251 40.36 51.6251 27.7316C51.6251 15.1031 41.2983 4.86572 28.5596 4.86572C15.8209 4.86572 5.49414 15.1031 5.49414 27.7316C5.49414 40.36 15.8209 50.5974 28.5596 50.5974Z" fill="#FFEA00" stroke="white" stroke-width="3" stroke-linecap="round" stroke-linejoin="round"/>
<path id="Vector_2" d="M42.3993 30.0181C41.8489 33.2477 40.1512 36.1756 37.613 38.2724C35.0748 40.3693 31.8637 41.4968 28.56 41.451C25.2563 41.4968 22.0451 40.3693 19.507 38.2724C16.9688 36.1756 15.271 33.2477 14.7207 30.0181H42.3993Z" stroke="black" stroke-width="3" stroke-linecap="round" stroke-linejoin="round"/>
<path id="Vector_3" d="M21.6406 20.8718H21.6621" stroke="black" stroke-width="3" stroke-linecap="round" stroke-linejoin="round"/>
<path id="Vector_4" d="M35.4785 20.8718H35.5" stroke="black" stroke-width="3" stroke-linecap="round" stroke-linejoin="round"/>
</g>
</svg>
